ffmpeg started on 2026-01-13 at 11:52:56
Report written to "D:\Convert\FFMetrics\reports\psnr_report-6.txt"
Log level: 32
Command line:
ffmpeg -hide_banner -nostdin -r 24000/1001 -i "F:\\Convert\\files\\[DC] Make Heroine ga Oosugiru - 07_Telegram_HEVC(85).mkv" -r 24000/1001 -i "F:\\Convert\\files\\[DC] Make Heroine ga Oosugiru - 07_Telegram.mp4" -lavfi "[0:v]settb=AVTB,setpts=PTS-STARTPTS,format=pix_fmts=yuv420p10le,fps=24000/1001,scale=1920:1080:flags=lanczos:param0=3:out_range=limited:out_color_matrix=bt709:out_chroma_loc=left,setsar=1/1,setdar=(1920/1080)*(1/1),colorspace=format=yuv420p10:range=tv:primaries=bt709:trc=bt709:space=bt709:fast=0[main];[1:v]settb=AVTB,setpts=PTS-STARTPTS,format=pix_fmts=yuv420p,fps=24000/1001,scale=1920:1080:flags=lanczos:param0=3:out_range=limited:out_color_matrix=bt709:out_chroma_loc=left,setsar=1.000,setdar=1.778,colorspace=format=yuv420p:range=tv:primaries=bt709:trc=bt709:space=bt709:fast=0[ref];[main][ref]psnr=eof_action=endall:stats_file='D\\:/Convert/FFMetrics/logs/psnr_logfile-6.txt'" -f null -
Input #0, matroska,webm, from 'F:\Convert\files\[DC] Make Heroine ga Oosugiru - 07_Telegram_HEVC(85).mkv':
  Metadata:
    COMPATIBLE_BRANDS: isomiso2avc1mp41
    MAJOR_BRAND     : isom
    MINOR_VERSION   : 512
    ENCODER         : Lavf61.7.100
  Duration: 00:24:06.79, start: -0.021000, bitrate: 981 kb/s
  Stream #0:0: Video: hevc (Main 10), yuv420p10le(tv, bt709, progressive), 1920x1080 [SAR 1:1 DAR 16:9], 23.98 fps, 23.98 tbr, 1k tbn (default)
      Metadata:
        HANDLER_NAME    : VideoHandler
        VENDOR_ID       : [0][0][0][0]
        ENCODER         : Lavc61.19.100 libx265
        BPS             : 784060
        DURATION        : 00:24:06.569708333
        NUMBER_OF_FRAMES: 34683
        NUMBER_OF_BYTES : 141774708
        _STATISTICS_WRITING_APP: mkvpropedit v94.0 ('Initiate') 64-bit
        _STATISTICS_WRITING_DATE_UTC: 2026-01-11 16:49:50
        _STATISTICS_TAGS: BPS DURATION NUMBER_OF_FRAMES NUMBER_OF_BYTES
  Stream #0:1: Audio: aac (LC), 48000 Hz, stereo, fltp (default)
      Metadata:
        HANDLER_NAME    : SoundHandler
        VENDOR_ID       : [0][0][0][0]
        ENCODER         : Lavc61.19.100 aac
        BPS             : 193194
        DURATION        : 00:24:06.784000000
        NUMBER_OF_FRAMES: 67819
        NUMBER_OF_BYTES : 34938755
        _STATISTICS_WRITING_APP: mkvpropedit v94.0 ('Initiate') 64-bit
        _STATISTICS_WRITING_DATE_UTC: 2026-01-11 16:49:50
        _STATISTICS_TAGS: BPS DURATION NUMBER_OF_FRAMES NUMBER_OF_BYTES
Input #1, mov,mp4,m4a,3gp,3g2,mj2, from 'F:\Convert\files\[DC] Make Heroine ga Oosugiru - 07_Telegram.mp4':
  Metadata:
    major_brand     : isom
    minor_version   : 512
    compatible_brands: isomiso2avc1mp41
    encoder         : Lavf60.16.100
  Duration: 00:24:06.74, start: 0.000000, bitrate: 3764 kb/s
  Stream #1:0[0x1](und): Video: h264 (High) (avc1 / 0x31637661), yuv420p(tv, bt709, progressive), 1920x1080 [SAR 1:1 DAR 16:9], 3616 kb/s, 23.98 fps, 23.98 tbr, 24k tbn (default)
      Metadata:
        handler_name    : VideoHandler
        vendor_id       : [0][0][0][0]
        encoder         : Lavc60.31.102 h264_qsv
  Stream #1:1[0x2](und): Audio: aac (HE-AACv2) (mp4a / 0x6134706D), 48000 Hz, stereo, fltp, 144 kb/s (default)
      Metadata:
        handler_name    : SoundHandler
        vendor_id       : [0][0][0][0]
Stream mapping:
  Stream #0:0 (hevc) -> settb:default
  Stream #1:0 (h264) -> settb:default
  psnr:default -> Stream #0:0 (wrapped_avframe)
  Stream #0:1 -> #0:1 (aac (native) -> pcm_s16le (native))
Output #0, null, to 'pipe:':
  Metadata:
    COMPATIBLE_BRANDS: isomiso2avc1mp41
    MAJOR_BRAND     : isom
    MINOR_VERSION   : 512
    encoder         : Lavf61.7.100
  Stream #0:0: Video: wrapped_avframe, yuv420p10le(tv, bt709, progressive), 1920x1080 [SAR 1:1 DAR 16:9], q=2-31, 200 kb/s, 23.98 fps, 23.98 tbn
      Metadata:
        encoder         : Lavc61.19.100 wrapped_avframe
  Stream #0:1: Audio: pcm_s16le, 48000 Hz, stereo, s16, 1536 kb/s (default)
      Metadata:
        HANDLER_NAME    : SoundHandler
        VENDOR_ID       : [0][0][0][0]
        _STATISTICS_TAGS: BPS DURATION NUMBER_OF_FRAMES NUMBER_OF_BYTES
        BPS             : 193194
        DURATION        : 00:24:06.784000000
        NUMBER_OF_FRAMES: 67819
        NUMBER_OF_BYTES : 34938755
        _STATISTICS_WRITING_APP: mkvpropedit v94.0 ('Initiate') 64-bit
        _STATISTICS_WRITING_DATE_UTC: 2026-01-11 16:49:50
        encoder         : Lavc61.19.100 pcm_s16le
frame=  128 fps=0.0 q=-0.0 size=N/A time=00:00:05.33 bitrate=N/A speed=10.4x    frame=  330 fps=317 q=-0.0 size=N/A time=00:00:13.76 bitrate=N/A speed=13.2x    frame=  517 fps=334 q=-0.0 size=N/A time=00:00:21.56 bitrate=N/A speed=13.9x    frame=  716 fps=346 q=-0.0 size=N/A time=00:00:29.86 bitrate=N/A speed=14.4x    frame=  894 fps=347 q=-0.0 size=N/A time=00:00:37.28 bitrate=N/A speed=14.5x    frame= 1037 fps=336 q=-0.0 size=N/A time=00:00:43.25 bitrate=N/A speed=  14x    frame= 1209 fps=334 q=-0.0 size=N/A time=00:00:50.42 bitrate=N/A speed=13.9x    frame= 1373 fps=333 q=-0.0 size=N/A time=00:00:57.26 bitrate=N/A speed=13.9x    frame= 1528 fps=329 q=-0.0 size=N/A time=00:01:03.73 bitrate=N/A speed=13.7x    frame= 1646 fps=320 q=-0.0 size=N/A time=00:01:08.65 bitrate=N/A speed=13.3x    frame= 1784 fps=314 q=-0.0 size=N/A time=00:01:14.40 bitrate=N/A speed=13.1x    frame= 1943 fps=314 q=-0.0 size=N/A time=00:01:21.03 bitrate=N/A speed=13.1x    frame= 2083 fps=310 q=-0.0 size=N/A time=00:01:26.87 bitrate=N/A speed=12.9x    frame= 2225 fps=308 q=-0.0 size=N/A time=00:01:32.80 bitrate=N/A speed=12.8x    frame= 2382 fps=308 q=-0.0 size=N/A time=00:01:39.34 bitrate=N/A speed=12.8x    frame= 2511 fps=304 q=-0.0 size=N/A time=00:01:44.72 bitrate=N/A speed=12.7x    frame= 2677 fps=305 q=-0.0 size=N/A time=00:01:51.65 bitrate=N/A speed=12.7x    frame= 2852 fps=307 q=-0.0 size=N/A time=00:01:58.95 bitrate=N/A speed=12.8x    frame= 3027 fps=309 q=-0.0 size=N/A time=00:02:06.25 bitrate=N/A speed=12.9x    frame= 3226 fps=313 q=-0.0 size=N/A time=00:02:14.55 bitrate=N/A speed=  13x    frame= 3418 fps=315 q=-0.0 size=N/A time=00:02:22.55 bitrate=N/A speed=13.1x    frame= 3610 fps=318 q=-0.0 size=N/A time=00:02:30.56 bitrate=N/A speed=13.3x    frame= 3799 fps=320 q=-0.0 size=N/A time=00:02:38.44 bitrate=N/A speed=13.3x    frame= 3930 fps=317 q=-0.0 size=N/A time=00:02:43.91 bitrate=N/A speed=13.2x    frame= 4119 fps=319 q=-0.0 size=N/A time=00:02:51.79 bitrate=N/A speed=13.3x    frame= 4316 fps=322 q=-0.0 size=N/A time=00:03:00.01 bitrate=N/A speed=13.4x    frame= 4512 fps=324 q=-0.0 size=N/A time=00:03:08.18 bitrate=N/A speed=13.5x    frame= 4695 fps=325 q=-0.0 size=N/A time=00:03:15.82 bitrate=N/A speed=13.6x    frame= 4896 fps=327 q=-0.0 size=N/A time=00:03:24.20 bitrate=N/A speed=13.6x    frame= 5080 fps=328 q=-0.0 size=N/A time=00:03:31.87 bitrate=N/A speed=13.7x    frame= 5267 fps=329 q=-0.0 size=N/A time=00:03:39.67 bitrate=N/A speed=13.7x    frame= 5455 fps=330 q=-0.0 size=N/A time=00:03:47.51 bitrate=N/A speed=13.8x    frame= 5650 fps=332 q=-0.0 size=N/A time=00:03:55.65 bitrate=N/A speed=13.8x    frame= 5838 fps=333 q=-0.0 size=N/A time=00:04:03.49 bitrate=N/A speed=13.9x    frame= 6033 fps=334 q=-0.0 size=N/A time=00:04:11.62 bitrate=N/A speed=13.9x    frame= 6203 fps=334 q=-0.0 size=N/A time=00:04:18.71 bitrate=N/A speed=13.9x    frame= 6372 fps=334 q=-0.0 size=N/A time=00:04:25.76 bitrate=N/A speed=13.9x    frame= 6510 fps=332 q=-0.0 size=N/A time=00:04:31.52 bitrate=N/A speed=13.8x    frame= 6706 fps=333 q=-0.0 size=N/A time=00:04:39.69 bitrate=N/A speed=13.9x    frame= 6900 fps=334 q=-0.0 size=N/A time=00:04:47.78 bitrate=N/A speed=13.9x    frame= 7090 fps=335 q=-0.0 size=N/A time=00:04:55.71 bitrate=N/A speed=  14x    frame= 7277 fps=336 q=-0.0 size=N/A time=00:05:03.51 bitrate=N/A speed=  14x    frame= 7468 fps=337 q=-0.0 size=N/A time=00:05:11.47 bitrate=N/A speed=  14x    frame= 7656 fps=337 q=-0.0 size=N/A time=00:05:19.31 bitrate=N/A speed=14.1x    frame= 7847 fps=338 q=-0.0 size=N/A time=00:05:27.28 bitrate=N/A speed=14.1x    frame= 8030 fps=338 q=-0.0 size=N/A time=00:05:34.91 bitrate=N/A speed=14.1x    frame= 8211 fps=339 q=-0.0 size=N/A time=00:05:42.46 bitrate=N/A speed=14.1x    frame= 8408 fps=339 q=-0.0 size=N/A time=00:05:50.68 bitrate=N/A speed=14.2x    frame= 8584 fps=339 q=-0.0 size=N/A time=00:05:58.02 bitrate=N/A speed=14.2x    frame= 8760 fps=340 q=-0.0 size=N/A time=00:06:05.36 bitrate=N/A speed=14.2x    frame= 8884 fps=338 q=-0.0 size=N/A time=00:06:10.53 bitrate=N/A speed=14.1x    frame= 9059 fps=338 q=-0.0 size=N/A time=00:06:17.83 bitrate=N/A speed=14.1x    frame= 9247 fps=338 q=-0.0 size=N/A time=00:06:25.67 bitrate=N/A speed=14.1x    frame= 9450 fps=339 q=-0.0 size=N/A time=00:06:34.14 bitrate=N/A speed=14.1x    frame= 9643 fps=340 q=-0.0 size=N/A time=00:06:42.19 bitrate=N/A speed=14.2x    frame= 9832 fps=340 q=-0.0 size=N/A time=00:06:50.07 bitrate=N/A speed=14.2x    frame=10022 fps=341 q=-0.0 size=N/A time=00:06:58.00 bitrate=N/A speed=14.2x    frame=10207 fps=341 q=-0.0 size=N/A time=00:07:05.71 bitrate=N/A speed=14.2x    frame=10392 fps=341 q=-0.0 size=N/A time=00:07:13.43 bitrate=N/A speed=14.2x    frame=10583 fps=342 q=-0.0 size=N/A time=00:07:21.39 bitrate=N/A speed=14.3x    frame=10767 fps=342 q=-0.0 size=N/A time=00:07:29.07 bitrate=N/A speed=14.3x    frame=10971 fps=343 q=-0.0 size=N/A time=00:07:37.58 bitrate=N/A speed=14.3x    frame=11160 fps=343 q=-0.0 size=N/A time=00:07:45.46 bitrate=N/A speed=14.3x    frame=11332 fps=343 q=-0.0 size=N/A time=00:07:52.63 bitrate=N/A speed=14.3x    frame=11479 fps=342 q=-0.0 size=N/A time=00:07:58.76 bitrate=N/A speed=14.3x    frame=11675 fps=343 q=-0.0 size=N/A time=00:08:06.94 bitrate=N/A speed=14.3x    frame=11858 fps=343 q=-0.0 size=N/A time=00:08:14.57 bitrate=N/A speed=14.3x    frame=12053 fps=343 q=-0.0 size=N/A time=00:08:22.71 bitrate=N/A speed=14.3x    frame=12248 fps=344 q=-0.0 size=N/A time=00:08:30.84 bitrate=N/A speed=14.3x    frame=12427 fps=344 q=-0.0 size=N/A time=00:08:38.30 bitrate=N/A speed=14.3x    frame=12621 fps=344 q=-0.0 size=N/A time=00:08:46.40 bitrate=N/A speed=14.4x    frame=12815 fps=345 q=-0.0 size=N/A time=00:08:54.49 bitrate=N/A speed=14.4x    frame=13006 fps=345 q=-0.0 size=N/A time=00:09:02.45 bitrate=N/A speed=14.4x    frame=13194 fps=345 q=-0.0 size=N/A time=00:09:10.29 bitrate=N/A speed=14.4x    frame=13383 fps=345 q=-0.0 size=N/A time=00:09:18.18 bitrate=N/A speed=14.4x    frame=13563 fps=346 q=-0.0 size=N/A time=00:09:25.69 bitrate=N/A speed=14.4x    frame=13743 fps=346 q=-0.0 size=N/A time=00:09:33.19 bitrate=N/A speed=14.4x    frame=13878 fps=344 q=-0.0 size=N/A time=00:09:38.82 bitrate=N/A speed=14.4x    frame=14053 fps=344 q=-0.0 size=N/A time=00:09:46.12 bitrate=N/A speed=14.4x    frame=14222 fps=344 q=-0.0 size=N/A time=00:09:53.17 bitrate=N/A speed=14.4x    frame=14412 fps=344 q=-0.0 size=N/A time=00:10:01.10 bitrate=N/A speed=14.4x    frame=14599 fps=345 q=-0.0 size=N/A time=00:10:08.89 bitrate=N/A speed=14.4x    frame=14784 fps=345 q=-0.0 size=N/A time=00:10:16.61 bitrate=N/A speed=14.4x    frame=14971 fps=345 q=-0.0 size=N/A time=00:10:24.41 bitrate=N/A speed=14.4x    frame=15136 fps=345 q=-0.0 size=N/A time=00:10:31.29 bitrate=N/A speed=14.4x    frame=15241 fps=343 q=-0.0 size=N/A time=00:10:35.67 bitrate=N/A speed=14.3x    frame=15414 fps=343 q=-0.0 size=N/A time=00:10:42.89 bitrate=N/A speed=14.3x    frame=15597 fps=343 q=-0.0 size=N/A time=00:10:50.52 bitrate=N/A speed=14.3x    frame=15786 fps=344 q=-0.0 size=N/A time=00:10:58.40 bitrate=N/A speed=14.3x    frame=15982 fps=344 q=-0.0 size=N/A time=00:11:06.58 bitrate=N/A speed=14.3x    frame=16176 fps=344 q=-0.0 size=N/A time=00:11:14.67 bitrate=N/A speed=14.4x    frame=16369 fps=345 q=-0.0 size=N/A time=00:11:22.72 bitrate=N/A speed=14.4x    frame=16544 fps=345 q=-0.0 size=N/A time=00:11:30.02 bitrate=N/A speed=14.4x    frame=16742 fps=345 q=-0.0 size=N/A time=00:11:38.28 bitrate=N/A speed=14.4x    frame=16934 fps=345 q=-0.0 size=N/A time=00:11:46.28 bitrate=N/A speed=14.4x    frame=17119 fps=345 q=-0.0 size=N/A time=00:11:54.00 bitrate=N/A speed=14.4x    frame=17311 fps=346 q=-0.0 size=N/A time=00:12:02.01 bitrate=N/A speed=14.4x    frame=17499 fps=346 q=-0.0 size=N/A time=00:12:09.85 bitrate=N/A speed=14.4x    frame=17654 fps=345 q=-0.0 size=N/A time=00:12:16.31 bitrate=N/A speed=14.4x    frame=17839 fps=346 q=-0.0 size=N/A time=00:12:24.03 bitrate=N/A speed=14.4x    frame=18033 fps=346 q=-0.0 size=N/A time=00:12:32.12 bitrate=N/A speed=14.4x    frame=18223 fps=346 q=-0.0 size=N/A time=00:12:40.05 bitrate=N/A speed=14.4x    frame=18411 fps=346 q=-0.0 size=N/A time=00:12:47.89 bitrate=N/A speed=14.4x    frame=18598 fps=346 q=-0.0 size=N/A time=00:12:55.69 bitrate=N/A speed=14.4x    frame=18792 fps=347 q=-0.0 size=N/A time=00:13:03.78 bitrate=N/A speed=14.5x    frame=18994 fps=347 q=-0.0 size=N/A time=00:13:12.20 bitrate=N/A speed=14.5x    frame=19197 fps=348 q=-0.0 size=N/A time=00:13:20.67 bitrate=N/A speed=14.5x    frame=19391 fps=348 q=-0.0 size=N/A time=00:13:28.76 bitrate=N/A speed=14.5x    frame=19587 fps=348 q=-0.0 size=N/A time=00:13:36.94 bitrate=N/A speed=14.5x    frame=19788 fps=348 q=-0.0 size=N/A time=00:13:45.32 bitrate=N/A speed=14.5x    frame=19975 fps=349 q=-0.0 size=N/A time=00:13:53.12 bitrate=N/A speed=14.5x    frame=20176 fps=349 q=-0.0 size=N/A time=00:14:01.50 bitrate=N/A speed=14.6x    frame=20312 fps=348 q=-0.0 size=N/A time=00:14:07.17 bitrate=N/A speed=14.5x    frame=20503 fps=348 q=-0.0 size=N/A time=00:14:15.14 bitrate=N/A speed=14.5x    frame=20663 fps=348 q=-0.0 size=N/A time=00:14:21.81 bitrate=N/A speed=14.5x    frame=20855 fps=348 q=-0.0 size=N/A time=00:14:29.82 bitrate=N/A speed=14.5x    frame=21046 fps=349 q=-0.0 size=N/A time=00:14:37.79 bitrate=N/A speed=14.5x    frame=21241 fps=349 q=-0.0 size=N/A time=00:14:45.92 bitrate=N/A speed=14.5x    frame=21419 fps=349 q=-0.0 size=N/A time=00:14:53.35 bitrate=N/A speed=14.5x    frame=21612 fps=349 q=-0.0 size=N/A time=00:15:01.40 bitrate=N/A speed=14.6x    frame=21798 fps=349 q=-0.0 size=N/A time=00:15:09.15 bitrate=N/A speed=14.6x    frame=22000 fps=349 q=-0.0 size=N/A time=00:15:17.58 bitrate=N/A speed=14.6x    frame=22190 fps=350 q=-0.0 size=N/A time=00:15:25.50 bitrate=N/A speed=14.6x    frame=22370 fps=350 q=-0.0 size=N/A time=00:15:33.01 bitrate=N/A speed=14.6x    frame=22560 fps=350 q=-0.0 size=N/A time=00:15:40.94 bitrate=N/A speed=14.6x    frame=22742 fps=350 q=-0.0 size=N/A time=00:15:48.53 bitrate=N/A speed=14.6x    frame=22911 fps=350 q=-0.0 size=N/A time=00:15:55.57 bitrate=N/A speed=14.6x    frame=23103 fps=350 q=-0.0 size=N/A time=00:16:03.58 bitrate=N/A speed=14.6x    frame=23290 fps=350 q=-0.0 size=N/A time=00:16:11.38 bitrate=N/A speed=14.6x    frame=23491 fps=350 q=-0.0 size=N/A time=00:16:19.77 bitrate=N/A speed=14.6x    frame=23682 fps=350 q=-0.0 size=N/A time=00:16:27.73 bitrate=N/A speed=14.6x    frame=23873 fps=350 q=-0.0 size=N/A time=00:16:35.70 bitrate=N/A speed=14.6x    frame=24059 fps=351 q=-0.0 size=N/A time=00:16:43.46 bitrate=N/A speed=14.6x    frame=24247 fps=351 q=-0.0 size=N/A time=00:16:51.30 bitrate=N/A speed=14.6x    frame=24432 fps=351 q=-0.0 size=N/A time=00:16:59.01 bitrate=N/A speed=14.6x    frame=24623 fps=351 q=-0.0 size=N/A time=00:17:06.98 bitrate=N/A speed=14.6x    frame=24826 fps=351 q=-0.0 size=N/A time=00:17:15.45 bitrate=N/A speed=14.6x    frame=25021 fps=351 q=-0.0 size=N/A time=00:17:23.58 bitrate=N/A speed=14.7x    frame=25207 fps=351 q=-0.0 size=N/A time=00:17:31.34 bitrate=N/A speed=14.7x    frame=25359 fps=351 q=-0.0 size=N/A time=00:17:37.68 bitrate=N/A speed=14.6x    frame=25545 fps=351 q=-0.0 size=N/A time=00:17:45.43 bitrate=N/A speed=14.6x    frame=25736 fps=351 q=-0.0 size=N/A time=00:17:53.40 bitrate=N/A speed=14.6x    frame=25934 fps=351 q=-0.0 size=N/A time=00:18:01.66 bitrate=N/A speed=14.7x    frame=26131 fps=352 q=-0.0 size=N/A time=00:18:09.88 bitrate=N/A speed=14.7x    frame=26330 fps=352 q=-0.0 size=N/A time=00:18:18.18 bitrate=N/A speed=14.7x    frame=26515 fps=352 q=-0.0 size=N/A time=00:18:25.89 bitrate=N/A speed=14.7x    frame=26718 fps=352 q=-0.0 size=N/A time=00:18:34.36 bitrate=N/A speed=14.7x    frame=26911 fps=352 q=-0.0 size=N/A time=00:18:42.41 bitrate=N/A speed=14.7x    frame=27087 fps=352 q=-0.0 size=N/A time=00:18:49.75 bitrate=N/A speed=14.7x    frame=27268 fps=352 q=-0.0 size=N/A time=00:18:57.30 bitrate=N/A speed=14.7x    frame=27452 fps=352 q=-0.0 size=N/A time=00:19:04.97 bitrate=N/A speed=14.7x    frame=27633 fps=352 q=-0.0 size=N/A time=00:19:12.52 bitrate=N/A speed=14.7x    frame=27835 fps=353 q=-0.0 size=N/A time=00:19:20.95 bitrate=N/A speed=14.7x    frame=27984 fps=352 q=-0.0 size=N/A time=00:19:27.16 bitrate=N/A speed=14.7x    frame=28174 fps=352 q=-0.0 size=N/A time=00:19:35.09 bitrate=N/A speed=14.7x    frame=28362 fps=352 q=-0.0 size=N/A time=00:19:42.93 bitrate=N/A speed=14.7x    frame=28557 fps=352 q=-0.0 size=N/A time=00:19:51.06 bitrate=N/A speed=14.7x    frame=28740 fps=353 q=-0.0 size=N/A time=00:19:58.69 bitrate=N/A speed=14.7x    frame=28918 fps=352 q=-0.0 size=N/A time=00:20:06.12 bitrate=N/A speed=14.7x    frame=29084 fps=352 q=-0.0 size=N/A time=00:20:13.04 bitrate=N/A speed=14.7x    frame=29267 fps=352 q=-0.0 size=N/A time=00:20:20.67 bitrate=N/A speed=14.7x    frame=29451 fps=352 q=-0.0 size=N/A time=00:20:28.35 bitrate=N/A speed=14.7x    frame=29620 fps=352 q=-0.0 size=N/A time=00:20:35.40 bitrate=N/A speed=14.7x    frame=29791 fps=352 q=-0.0 size=N/A time=00:20:42.53 bitrate=N/A speed=14.7x    frame=29969 fps=352 q=-0.0 size=N/A time=00:20:49.95 bitrate=N/A speed=14.7x    frame=30136 fps=352 q=-0.0 size=N/A time=00:20:56.92 bitrate=N/A speed=14.7x    frame=30290 fps=352 q=-0.0 size=N/A time=00:21:03.34 bitrate=N/A speed=14.7x    frame=30464 fps=351 q=-0.0 size=N/A time=00:21:10.60 bitrate=N/A speed=14.7x    frame=30656 fps=352 q=-0.0 size=N/A time=00:21:18.61 bitrate=N/A speed=14.7x    frame=30850 fps=352 q=-0.0 size=N/A time=00:21:26.70 bitrate=N/A speed=14.7x    frame=31048 fps=352 q=-0.0 size=N/A time=00:21:34.96 bitrate=N/A speed=14.7x    frame=31242 fps=352 q=-0.0 size=N/A time=00:21:43.05 bitrate=N/A speed=14.7x    frame=31424 fps=352 q=-0.0 size=N/A time=00:21:50.64 bitrate=N/A speed=14.7x    frame=31619 fps=352 q=-0.0 size=N/A time=00:21:58.77 bitrate=N/A speed=14.7x    frame=31808 fps=352 q=-0.0 size=N/A time=00:22:06.65 bitrate=N/A speed=14.7x    frame=31984 fps=352 q=-0.0 size=N/A time=00:22:13.99 bitrate=N/A speed=14.7x    frame=32177 fps=352 q=-0.0 size=N/A time=00:22:22.04 bitrate=N/A speed=14.7x    frame=32379 fps=352 q=-0.0 size=N/A time=00:22:30.47 bitrate=N/A speed=14.7x    frame=32569 fps=353 q=-0.0 size=N/A time=00:22:38.39 bitrate=N/A speed=14.7x    frame=32723 fps=352 q=-0.0 size=N/A time=00:22:44.82 bitrate=N/A speed=14.7x    frame=32863 fps=352 q=-0.0 size=N/A time=00:22:50.66 bitrate=N/A speed=14.7x    frame=33050 fps=352 q=-0.0 size=N/A time=00:22:58.46 bitrate=N/A speed=14.7x    frame=33234 fps=352 q=-0.0 size=N/A time=00:23:06.13 bitrate=N/A speed=14.7x    frame=33413 fps=352 q=-0.0 size=N/A time=00:23:13.60 bitrate=N/A speed=14.7x    frame=33566 fps=352 q=-0.0 size=N/A time=00:23:19.98 bitrate=N/A speed=14.7x    frame=33722 fps=351 q=-0.0 size=N/A time=00:23:26.48 bitrate=N/A speed=14.7x    frame=33838 fps=351 q=-0.0 size=N/A time=00:23:31.32 bitrate=N/A speed=14.6x    frame=33985 fps=350 q=-0.0 size=N/A time=00:23:37.45 bitrate=N/A speed=14.6x    frame=34147 fps=350 q=-0.0 size=N/A time=00:23:44.21 bitrate=N/A speed=14.6x    frame=34301 fps=350 q=-0.0 size=N/A time=00:23:50.63 bitrate=N/A speed=14.6x    frame=34426 fps=349 q=-0.0 size=N/A time=00:23:55.85 bitrate=N/A speed=14.6x    frame=34600 fps=349 q=-0.0 size=N/A time=00:24:03.10 bitrate=N/A speed=14.6x    [Parsed_psnr_16 @ 0000013d4a88f580] PSNR y:48.950583 u:50.328678 v:50.378828 average:49.369853 min:38.003480 max:inf
[out#0/null @ 0000013d3d3d8a00] video:14903KiB audio:271276KiB subtitle:0KiB other streams:0KiB global headers:0KiB muxing overhead: unknown
frame=34683 fps=349 q=-0.0 Lsize=N/A time=00:24:06.57 bitrate=N/A speed=14.6x    
